<svg width="72" height="73" viewBox="0 0 72 73" fill="none" xmlns="http://www.w3.org/2000/svg">
<path d="M36 71.9375C55.6061 71.9375 71.5 56.0436 71.5 36.4375C71.5 16.8314 55.6061 0.9375 36 0.9375C16.3939 0.9375 0.5 16.8314 0.5 36.4375C0.5 56.0436 16.3939 71.9375 36 71.9375Z" fill="white" stroke="#DCDDEB"/>
<path d="M47.0856 53.822C47.0732 53.822 47.0609 53.822 47.0485 53.822C41.11 53.6275 34.1529 47.8711 29.3595 43.0746C24.5599 38.2782 18.8035 31.318 18.6183 25.4073C18.5504 23.3331 23.6402 19.6447 23.6926 19.6076C25.0137 18.6879 26.4798 19.015 27.0817 19.8484C27.4891 20.4132 31.3473 26.2591 31.767 26.9228C32.2022 27.6111 32.1374 28.6358 31.5942 29.6636C31.2948 30.2346 30.3009 31.9816 29.8349 32.7965C30.338 33.5125 31.6683 35.2688 34.4153 38.0158C37.1654 40.7628 38.9186 42.0962 39.6377 42.5993C40.4526 42.1332 42.1996 41.1394 42.7706 40.84C43.7829 40.3029 44.8015 40.235 45.496 40.661C46.2059 41.0962 52.0364 44.9729 52.5734 45.3463C53.0241 45.6643 53.3142 46.2075 53.3728 46.8402C53.4284 47.4791 53.2309 48.1551 52.8204 48.7446C52.7864 48.794 49.1412 53.822 47.0856 53.822Z" fill="#0075FF"/>
</svg>
